User Type,Username,Date,Text
[T],whaleoilbeefhooked,2010-12-28T23:30Z,whats the ep number please is this 12?
,-NoMercy-,2010-12-28T23:59Z,"Well if you look at video info, you don't want to download it:


Format                           : MPEG-PS
File size                        : 652 MiB
Duration                         : 1h 4mn
Overall bit rate                 : 1 406 Kbps

Video
ID                               : 224 (0xE0)
Format                           : MPEG Video
Format version                   : Version 1
Format settings, BVOP            : Yes
Format settings, Matrix          : Default
Duration                         : 1h 4mn
Bit rate mode                    : Variable
Bit rate                         : 1 154 Kbps
Nominal bit rate                 : 1 438 Kbps
Width                            : 352 pixels
Height                           : 240 pixels
Display aspect ratio             : 4:3
Frame rate                       : 29.970 fps
Standard                         : NTSC
Color space                      : YUV
Bit depth                        : 8 bits
Scan type                        : Progressive
Compression mode                 : Lossy
Bits/(Pixel*Frame)               : 0.456
Stream size                      : 535 MiB (82%)

Audio
ID                               : 192 (0xC0)
Format                           : MPEG Audio
Format version                   : Version 1
Format profile                   : Layer 2
Duration                         : 1h 4mn
Bit rate mode                    : Constant
Bit rate                         : 224 Kbps
Channel(s)                       : 2 channels
Sampling rate                    : 44.1 KHz
Compression mode                 : Lossy
Delay relative to video          : -41ms
Stream size                      : 104 MiB (16%)"
,Snowwie888,2010-12-29T01:47Z,"This is episode 12 (if considering ""a family divided"" is episode 0). The video quality is like it was in the late 90s, but I see rather anything than nothing. "
,higga,2010-12-29T04:36Z,":D You watch reality shows for teh cinematic values? LOL. what a pompous jackass. Wish there was some way to make sure you don't DL this. Enjoy not watching the show, blowhard.

------------------------------

-NoMercy- at 2010-12-28 23:59 CET:
Well if you look at video info, you don't want to download it:


Format : MPEG-PS
File size : 652 MiB
Duration : 1h 4mn
Overall bit rate : 1 406 Kbps"
,begeezus,2011-02-01T10:07Z,just looking at the seeders and leechers you can tell this is pure horse shit hahaha OF COURSE WE ALL WILL BE SKIPPING THIS BASEMENT JOCKEY'S RELEASE
